<svg xmlns="http://www.w3.org/2000/svg" width="51.98" height="36.9" viewBox="0 0 51.98 36.9"><defs><style>.a,.b{fill:#fff;}.b{stroke:#fff;stroke-miterlimit:10;stroke-width:0.25px;}</style></defs><path class="a" d="M3.7 5.96h6.53v.79H3.7zM4.24 26.03l2.97 3.63h.49v-4.95h-.71v3.64l-2.97-3.64h-.49v4.95h.71v-3.63M10.74 26.7l-1.26-1.99h-.79l1.7 2.69v2.26h.71V27.4l1.69-2.69H12l-1.26 1.99M17.25 26.66h-2.76v-1.95h-.71v4.95h.71v-2.33h2.76v2.33h.71v-4.95h-.71v1.95M20.22 27.33h1.62v-.67h-1.62v-1.28h2.12v-.67h-2.83v4.95h2.9v-.67h-2.19v-1.66M23.08 25.38h1.35v4.28h.7v-4.28h1.35v-.67h-3.4v.67"/><path class="a" d="M51.73 10.5L0 0v36.9l51.98-10.13-16-8.36zm-2.11 16L.79 35.95v-35l48.55 9.82-15.12 7.68z"/><path class="b" d="M3.41 22.77a2.38 2.38 0 0 0 .16-.57 5.23 5.23 0 0 0 0-.82v-11a5.16 5.16 0 0 0 0-.81A2.61 2.61 0 0 0 3.41 9h1.88a3.29 3.29 0 0 0-.35 1.38v11c.43 0 7.18.26 9.56-.35v1.74z"/><path class="b" d="M14.58 13.96a5.89 5.89 0 0 1-1.17 3.81 3.73 3.73 0 0 1-3 1.4 3.55 3.55 0 0 1-2.95-1.4 5.66 5.66 0 0 1-1.05-3.6 6.32 6.32 0 0 1 1.08-4 3.66 3.66 0 0 1 3.05-1.37 3.63 3.63 0 0 1 3 1.34 5.92 5.92 0 0 1 1.04 3.82zm-1.29-.11a4.59 4.59 0 0 0-.74-2.72 2.47 2.47 0 0 0-2.14-1.09 2.33 2.33 0 0 0-2.09 1.22 5.36 5.36 0 0 0-.67 2.83 4.74 4.74 0 0 0 .7 2.66 2.35 2.35 0 0 0 2.06 1.15 2.44 2.44 0 0 0 2.16-1.23 5.15 5.15 0 0 0 .72-2.82zM30.41 17.14a14.53 14.53 0 0 1-4.81.55v-4h1.76a1.33 1.33 0 0 1 .75.25v-1.55a2.28 2.28 0 0 1-.7.26h-1.83v-2.53a13.49 13.49 0 0 1 4.32.57v-.48-.52a1.73 1.73 0 0 1 .26-.68h-6.17a1.24 1.24 0 0 1 .28.66v8.49a1.65 1.65 0 0 1-.28.65h6.7a1.73 1.73 0 0 1-.26-.68c-.02-.09-.02-.99-.02-.99z"/><path class="b" d="M25.25 22.77h-3a1.75 1.75 0 0 0 .23-.63c0-.21-2.49-3.35-2.49-3.35s-2-2.8-2.23-3h-.39c-.08 0-.11.39-.11.69v5.29a2.52 2.52 0 0 0 .28 1H15.7l.12-.3a1.85 1.85 0 0 0 .14-.7V10.22a3 3 0 0 0-.21-1.09v-.09h1.8a2.45 2.45 0 0 0-.29 1V13.77a2 2 0 0 0 .14.77h.48c.28-.43 2.65-4.92 2.65-4.92a1 1 0 0 0 0-.58h2.54l-.21.16a6.12 6.12 0 0 0-1.58 1.85l-2.35 4.2 4.31 5.5a6 6 0 0 0 1.41 1.54zM11.3 14.61H9.65l-.75-.62.75-.61h1.65l.75.61-.75.62"/></svg>