<svg id="7d09061e-d33e-42f9-acfc-bf75221fbb93" data-name="Layer 1" xmlns="http://www.w3.org/2000/svg" width="106" height="68" viewBox="0 0 109.739 69.469"><defs><style>.e3231642-994a-44eb-8786-4e2ed1133626{fill:#fff;}</style></defs><title>flag</title><rect class="e3231642-994a-44eb-8786-4e2ed1133626" x="15.086" y="51.535" width="1.541" height="7.191" transform="translate(-43.23 60.139) rotate(-79.62)"/><path class="e3231642-994a-44eb-8786-4e2ed1133626" d="M12.011,55.358l0.33-1.8L19.7,54.9l-0.33,1.8Zm0.564-1.463L12.35,55.123l6.787,1.243,0.225-1.229Z" transform="translate(-2.001 -0.655)"/><path class="e3231642-994a-44eb-8786-4e2ed1133626" d="M4.028,68.467L16.035,2.939,106.564,38.6,74.7,47.536l27.018,20.492ZM14.841,0.855L2.176,69.978l104-.466L78.035,48.169l33.249-9.327Z" transform="translate(-2.001 -0.655)"/><path class="e3231642-994a-44eb-8786-4e2ed1133626" d="M2,70.124L14.729,0.655l97.011,38.21L78.356,48.23,106.6,69.656l-0.43,0ZM14.952,1.056L2.351,69.832l103.393-.463L77.714,48.108l33.114-9.29ZM3.854,68.614L15.924,2.739l91.1,35.883-32,8.975,27.127,20.574-0.43,0ZM16.146,3.139L4.2,68.321l97.085-.437L74.379,47.475l31.729-8.9Z" transform="translate(-2.001 -0.655)"/><path class="e3231642-994a-44eb-8786-4e2ed1133626" d="M18.87,18.241l0.837,0.154L22.4,23.037l0.738-4.011,1.188,0.219L23.19,25.4l-0.835-.154-2.692-4.643-0.738,4.011L17.737,24.4Z" transform="translate(-2.001 -0.655)"/><path class="e3231642-994a-44eb-8786-4e2ed1133626" d="M23.307,25.572l-1.044-.192L19.735,21.02l-0.693,3.766-1.474-.271,1.186-6.444L19.8,18.264l2.527,4.359,0.693-3.766,1.474,0.271Zm-0.86-.454,0.626,0.115,1.081-5.871-0.9-.166L22.47,23.451l-2.855-4.925-0.627-.115-1.081,5.871,0.9,0.166,0.783-4.256Z" transform="translate(-2.001 -0.655)"/><path class="e3231642-994a-44eb-8786-4e2ed1133626" d="M29.074,23.6l-0.513,2.788-1.188-.219,0.513-2.788L26.4,19.626l1.354,0.249,0.957,2.413,1.745-1.916,1.354,0.249Z" transform="translate(-2.001 -0.655)"/><path class="e3231642-994a-44eb-8786-4e2ed1133626" d="M28.678,26.56L27.2,26.289l0.532-2.89-1.571-3.963,1.692,0.311,0.9,2.271,1.642-1.8,1.692,0.311L29.21,23.67Zm-1.135-.505,0.9,0.166,0.494-2.686,2.582-2.817-1.015-.187-1.847,2.029L27.645,20l-1.016-.187,1.408,3.552Z" transform="translate(-2.001 -0.655)"/><path class="e3231642-994a-44eb-8786-4e2ed1133626" d="M37.52,25.175l-3.078-.567-0.51,2.771-1.188-.219L33.877,21l1.188,0.219-0.429,2.331,3.078,0.567,0.429-2.331,1.188,0.219L38.2,28.165l-1.188-.219Z" transform="translate(-2.001 -0.655)"/><path class="e3231642-994a-44eb-8786-4e2ed1133626" d="M38.314,28.334l-1.474-.271,0.51-2.771-2.792-.514-0.51,2.771-1.474-.271,1.186-6.444L35.234,21.1l-0.429,2.331L37.6,23.95l0.429-2.331L39.5,21.89Zm-1.135-.505L38.08,28l1.081-5.871-0.9-.166-0.429,2.331-3.365-.619,0.429-2.331-0.9-.166-1.081,5.871,0.9,0.166,0.51-2.771,3.365,0.619Z" transform="translate(-2.001 -0.655)"/><path class="e3231642-994a-44eb-8786-4e2ed1133626" d="M43.054,23.784L42.819,25.06l1.891,0.348-0.194,1.055-1.891-.348L42.309,27.83l2.6,0.478-0.194,1.056-3.783-.7,1.134-6.158,3.694,0.68-0.194,1.056Z" transform="translate(-2.001 -0.655)"/><path class="e3231642-994a-44eb-8786-4e2ed1133626" d="M44.827,29.533l-4.07-.749,1.186-6.444,3.981,0.733-0.247,1.342-2.507-.461-0.182.989,1.891,0.348-0.247,1.342-1.891-.348-0.263,1.429,2.6,0.478ZM41.1,28.55l3.5,0.644,0.142-.769-2.6-.478,0.369-2L44.4,26.293l0.141-.769-1.891-.348,0.288-1.562,2.507,0.461,0.142-.769-3.408-.627Z" transform="translate(-2.001 -0.655)"/><path class="e3231642-994a-44eb-8786-4e2ed1133626" d="M52.313,24.4l-0.194,1.056-1.627-.3-0.939,5.1-1.188-.219,0.939-5.1-1.627-.3,0.194-1.056Z" transform="translate(-2.001 -0.655)"/><path class="e3231642-994a-44eb-8786-4e2ed1133626" d="M49.669,30.425L48.2,30.153l0.939-5.1-1.627-.3,0.247-1.342,4.729,0.87-0.247,1.342-1.627-.3Zm-1.135-.505,0.9,0.166,0.939-5.1L52,25.283l0.142-.769-4.156-.765-0.142.769,1.627,0.3Z" transform="translate(-2.001 -0.655)"/><path class="e3231642-994a-44eb-8786-4e2ed1133626" d="M16.514,33.1a4.788,4.788,0,0,1,5.334-2.95,4.641,4.641,0,0,1,3.892,5.558c-0.271,1.473-1.069,2.6-2.753,4.015L16.448,45.2l7.535,1.387-0.249,1.355-9.745-1.794,0.162-.88,7.779-6.481c1.653-1.367,2.2-2.324,2.377-3.3a3.277,3.277,0,0,0-2.659-3.979,3.476,3.476,0,0,0-3.933,2.274Z" transform="translate(-2.001 -0.655)"/><path class="e3231642-994a-44eb-8786-4e2ed1133626" d="M23.85,48.117L13.819,46.27l0.2-1.075,7.82-6.515c1.454-1.2,2.128-2.134,2.327-3.213a3.133,3.133,0,0,0-2.542-3.809,3.337,3.337,0,0,0-3.773,2.188L17.783,34l-1.454-.833,0.051-.119a4.937,4.937,0,0,1,5.495-3.036,4.782,4.782,0,0,1,4.009,5.728c-0.275,1.492-1.06,2.641-2.8,4.1l-6.3,5.282,7.374,1.357Zm-9.693-2.08,9.459,1.741,0.2-1.069-7.7-1.417,6.776-5.68c1.685-1.41,2.443-2.512,2.7-3.93a4.5,4.5,0,0,0-3.776-5.388A4.642,4.642,0,0,0,16.7,33.04l0.948,0.543a3.586,3.586,0,0,1,4.026-2.211,3.414,3.414,0,0,1,2.776,4.148c-0.212,1.153-.916,2.134-2.427,3.384l-7.738,6.447Z" transform="translate(-2.001 -0.655)"/><path class="e3231642-994a-44eb-8786-4e2ed1133626" d="M37.366,33.008c4.088,0.753,4.917,4.666,4.012,9.585s-3.074,8.282-7.162,7.529-4.916-4.665-4.01-9.586S33.278,32.255,37.366,33.008Zm-2.9,15.76c3.09,0.569,4.729-2.324,5.486-6.437s0.256-7.4-2.834-7.968-4.729,2.324-5.486,6.436S31.375,48.2,34.465,48.767Z" transform="translate(-2.001 -0.655)"/><path class="e3231642-994a-44eb-8786-4e2ed1133626" d="M34.189,50.266c-3.748-.69-5.175-4.063-4.127-9.756s3.582-8.336,7.33-7.646,5.176,4.063,4.128,9.755S37.938,50.956,34.189,50.266ZM37.34,33.151c-4.5-.828-6.284,3.574-6.991,7.412s-0.6,8.588,3.893,9.416,6.286-3.574,6.992-7.413S41.839,33.979,37.34,33.151Zm-2.9,15.76c-2.815-.518-3.836-3.332-2.951-8.138s2.84-7.071,5.655-6.553,3.836,3.332,2.951,8.137S37.254,49.429,34.439,48.911Zm2.652-14.4c-2.665-.491-4.454,1.635-5.316,6.319s0.052,7.308,2.717,7.8,4.454-1.636,5.316-6.32S39.756,35,37.09,34.506Z" transform="translate(-2.001 -0.655)"/><path class="e3231642-994a-44eb-8786-4e2ed1133626" d="M47.082,37.352l4.1-1.556,0.95,0.175L49.064,52.61l-1.425-.262,2.717-14.761-3.537,1.192Z" transform="translate(-2.001 -0.655)"/><path class="e3231642-994a-44eb-8786-4e2ed1133626" d="M49.181,52.78l-1.712-.315,2.7-14.661L46.631,39l0.322-1.751,4.21-1.6L52.3,35.854Zm-1.373-.549,1.139,0.21,3.01-16.353-0.766-.141L47.21,37.459l-0.2,1.1,3.537-1.192Z" transform="translate(-2.001 -0.655)"/><path class="e3231642-994a-44eb-8786-4e2ed1133626" d="M61.14,43.995A5.569,5.569,0,1,1,56.262,48.6a6.671,6.671,0,0,1,1.825-3.375l6.562-6.951,1.617,0.3Zm-1.87,2.015a5.523,5.523,0,0,0-1.565,2.76,4.17,4.17,0,1,0,8.2,1.51,4.071,4.071,0,0,0-3.351-4.893A4.6,4.6,0,0,0,59.271,46.01Z" transform="translate(-2.001 -0.655)"/><path class="e3231642-994a-44eb-8786-4e2ed1133626" d="M60.756,55.156h0a5.662,5.662,0,0,1-4.636-6.581,6.735,6.735,0,0,1,1.863-3.449L64.6,38.119l1.958,0.361-5.043,5.333a5.868,5.868,0,0,1,1.412.094A5.729,5.729,0,1,1,60.756,55.156ZM64.7,38.434l-6.508,6.893a6.455,6.455,0,0,0-1.788,3.3A5.475,5.475,0,0,0,67.19,50.516a5.3,5.3,0,0,0-4.316-6.324,5.367,5.367,0,0,0-1.713-.053l-0.411.057,5.228-5.528ZM61.054,53.81a4.256,4.256,0,0,1-3.493-5.067,5.619,5.619,0,0,1,1.591-2.82l0.041-.037a4.765,4.765,0,0,1,3.388-.643,4.2,4.2,0,0,1,3.468,5.063A4.269,4.269,0,0,1,61.054,53.81Zm-1.69-7.687A5.368,5.368,0,0,0,57.848,48.8a4.024,4.024,0,1,0,7.915,1.457,3.915,3.915,0,0,0-3.234-4.724A4.474,4.474,0,0,0,59.365,46.123Z" transform="translate(-2.001 -0.655)"/><path class="e3231642-994a-44eb-8786-4e2ed1133626" d="M54.671,25.922L54.436,27.2l1.891,0.348L56.133,28.6l-1.891-.348-0.316,1.715,2.6,0.478L56.327,31.5l-3.782-.7,1.134-6.158,3.694,0.68-0.194,1.056Z" transform="translate(-2.001 -0.655)"/><path class="e3231642-994a-44eb-8786-4e2ed1133626" d="M56.444,31.672l-4.069-.749,1.186-6.444,3.981,0.733L57.3,26.553l-2.507-.462-0.182.989L56.5,27.429,56.25,28.771l-1.891-.348L54.1,29.852l2.6,0.478Zm-3.73-.983,3.5,0.644,0.142-.769-2.6-.478,0.368-2,1.891,0.348,0.142-.769-1.891-.348,0.288-1.562,2.507,0.462,0.142-.769-3.408-.627Z" transform="translate(-2.001 -0.655)"/><path class="e3231642-994a-44eb-8786-4e2ed1133626" d="M59.424,29.253l-0.5,2.727-1.187-.219L58.868,25.6l2.243,0.413a1.894,1.894,0,0,1,1.262.705,1.752,1.752,0,0,1-.463,2.516,1.613,1.613,0,0,1-.682.247l1.785,3.248-1.469-.27-1.689-3.13Zm1.18-.874a0.739,0.739,0,0,0,.632-0.075,0.729,0.729,0,0,0,.173-0.941,0.736,0.736,0,0,0-.562-0.3l-0.985-.181L59.618,28.2Z" transform="translate(-2.001 -0.655)"/><path class="e3231642-994a-44eb-8786-4e2ed1133626" d="M63.288,32.931l-1.839-.339-1.689-3.13-0.219-.04-0.5,2.727-1.474-.271,1.186-6.444,2.386,0.439a2.045,2.045,0,0,1,1.351.76,1.9,1.9,0,0,1-.5,2.726,1.735,1.735,0,0,1-.537.231Zm-1.65-.6,1.1,0.2L61,29.368l0.212-.027a1.459,1.459,0,0,0,.622-0.225,1.607,1.607,0,0,0,.425-2.308,1.772,1.772,0,0,0-1.17-.648l-2.1-.387L57.9,31.644l0.9,0.166,0.5-2.727L59.95,29.2Zm-1.061-3.81-1.129-.208,0.3-1.606,1.129,0.208a0.888,0.888,0,0,1,.659.369,0.874,0.874,0,0,1,.109.612,0.862,0.862,0,0,1-.318.524A0.882,0.882,0,0,1,60.577,28.522Zm-0.79-.442,0.842,0.155a0.59,0.59,0,0,0,.518-0.048,0.572,0.572,0,0,0,.206-0.344,0.585,0.585,0,0,0-.069-0.4A0.6,0.6,0,0,0,60.82,27.2l-0.842-.155Z" transform="translate(-2.001 -0.655)"/></svg>