<svg xmlns="http://www.w3.org/2000/svg" width="243" height="185" viewBox="0 0 261.001 199.987"><defs><style>.\34 161fa61-9f58-4afa-91ea-1a91fca0ec11{fill:#fff;}</style></defs><title>starttext</title><path class="4161fa61-9f58-4afa-91ea-1a91fca0ec11" d="M243.535 37.368c-5.613 4.369-4.345 11.813-.749 14.036a6.949 6.949 0 0 0 9.04-.821c4.453-5.3-1.983-9.848-5.059-6.09l.6.319a3.922 3.922 0 0 1 2.334-.658c2.264.166 3.055 2.594 2.177 4.473a5.442 5.442 0 0 1-1.416 1.857c-4.657 3.741-11.262-.906-9.74-7.532 1.534-6.315 9.33-9.207 15.083-4.55a12.074 12.074 0 0 1 2.344 15.736c-8.519 11.507-22.155 1.489-25.888-.158.324-7.65-8.719-18.612-24.713-10.558v.292c14.054-7.067 24.4 2.773 24.214 10.048-7.966-3.28-11.937 4.824-7.014 6.986 2.366 1.082 6.722-.889 7.423-5.8 4.01 1.98 11.626 8 21 4.592a.432.432 0 0 0 .083-.037 12.937 12.937 0 0 0 4.859-3.649c9.023-12.422-5.14-25.874-14.578-18.486zm-18.5 22.813a2.524 2.524 0 0 1-.668-.371c-1.273-.7-2.134-3.91 1.569-5.655 1.956-.807 3.936-.28 5.752.559-.656 5.07-5.073 6.312-6.654 5.467zm-165.687-34.126c5.306-.66 8.975-4.879 8.975-9.313 0-3.033-1.75-5.373-4.8-4.975a4.186 4.186 0 0 0-3.951 3.815 1.968 1.968 0 0 0 2.2 2.194 1.4 1.4 0 0 1-.338-1.193 2.593 2.593 0 0 1 2.427-2.446c1.862-.243 3.274.969 3.274 3.272 0 4.322-3.613 7.624-7.9 8.154-7.677.943-10.894-3.916-10.894-9.018 0-5.172 4.064-10.74 11.571-11.673 10.217-1.272 21.168 7.645 28.111 10.867-3.274 7.421-3.217 15.326-3.217 19.482v20.832c0 3.986-2.2 6.633-5.476 7.123s-5.93-.594-5.93-5.928v-26.391c0-1.124.057-2.815 1.976-3.092l.452-.066v-.899q-5.221.759-10.443 1.454v.9l.4-.052c2.371-.317 2.371 1.364 2.371 2.488v25.21c0 8.2 6.04 8.888 10.668 8.191a8.873 8.873 0 0 0 7.9-8.845v-21.896c0-4.38-.056-11.388 2.427-17.958 5.306 2.358 11.064 3.821 17.216 2.771 6.21-1.059 11.855-5.477 11.855-11.652 0-4.327-3.105-8.545-11.346-7.133-7.844 1.342-14.335 6.887-18.004 13.644-8.693-4.973-17.272-11.992-28-10.629-8.637 1.084-13.209 7.478-13.209 13.27 0 5.155 3.668 10.478 11.684 9.492zm47.585-25.339c7.9-1.355 10.781 2.736 10.781 6.838 0 5.783-5.531 9.9-11.007 10.832-6.153 1.05-11.571-.972-16.821-3.9 3.329-7.153 9.595-12.5 17.046-13.77zm52.839 121.2l-1.441.242c-2.521.426-2.737-1.758-2.737-3.334v-48.58a30.162 30.162 0 0 0 11.6.361c5.762-.94 11.308-4.869 12.605-10.007l-.432-.221a10.343 10.343 0 0 1-8.067 6.123c-15.127 2.424-26.291-9.631-41.85-6.889-9.8 1.731-13.9 7.386-13.9 12.331 0 4.3 3.6 7.4 10.012 6.268 2.737-.482 7.779-2.377 10.156-7.31l-.577-.328a13.345 13.345 0 0 1-9.579 6.778c-5.907 1.042-8.5-1.875-8.5-5.242 0-3.655 2.953-7.536 9.148-8.629 7.059-1.245 14.622 2.07 22.689 4.757v51.732c0 1.577-.072 3.81-2.737 4.273l-1.512.264v1.218q7.563-1.32 15.126-2.594v-1.218zm-63.322-84.458c6.774-1.12 8.467-3.385 8.467-5.628 0-1.572-1.241-2.147-2.54-1.929a2.611 2.611 0 0 0-1.58.827 1.992 1.992 0 0 1 1.072 1.785c0 2.415-2.54 3.46-5.136 3.887l-1.186.2v-6.069l-1.072.175a12.627 12.627 0 0 1-3.9 6.076 6.548 6.548 0 0 1-2.315 1.1v.9l2.484-.395v18.979c0 4.1 2.54 5.378 5.7 4.857 1.976-.325 3.387-1.346 4.742-3.6l-.734-.438a3.416 3.416 0 0 1-2.314 2.069c-1.694.281-2.6-.751-2.6-2.829v-19.825zm9.9-7.145v5.222a31.332 31.332 0 0 0-3.33 1.8c-.508.254-.339 1.012.226.748.9-.489 1.806-1.148 3.1-1.762v21.562c0 1.572-.677 1.8-1.354 1.915l-.621.105v.955q4.684-.793 9.37-1.609v-.955l-1.185.206c-.9.156-1.468-.252-1.468-1.431v-22.069c1.806-.2 3.443.47 3.443 2.042a2.239 2.239 0 0 1-1.016 1.917 1.661 1.661 0 0 0 1.355.158 3.442 3.442 0 0 0 2.879-3.142c0-2.358-2.935-2.686-5.476-2.247a8.985 8.985 0 0 0-1.185.261v-4.151c0-4.156.056-7.253 2.766-7.723 1.637-.284 1.975 1.229 2.145 2.435a1.694 1.694 0 0 0 2.088 1.881 2.413 2.413 0 0 0 1.976-2.592c0-2.7-3.387-3.168-5.927-2.727-5.472.949-7.787 4.707-7.787 9.2zm19.659 26.8c5.645-1 9.145-7.9 9.145-14.865 0-4.043-1.863-10.678-7.056-9.761a5.437 5.437 0 0 0-4.8 5.338c0 2.022 1.185 3.217 3.048 2.888a2.9 2.9 0 0 0 2.258-2.532 1.959 1.959 0 0 0-.339-1.231 1.835 1.835 0 0 1-1.3.79 1.4 1.4 0 0 1-1.863-1.524 2.4 2.4 0 0 1 1.976-2.37 1.847 1.847 0 0 1 1.975 1.055c1.016 2.011 1.129 6.09 1.129 8.616 0 9.209-1.749 12.158-4.177 12.586-2.371.418-4.064-1.812-4.064-11.189 0-4.043.226-12.729 5.758-13.7a3.712 3.712 0 0 1 1.75.085c.564.181.846-.206.282-.555a4.152 4.152 0 0 0-2.71-.252c-6.152 1.086-9.991 8.269-9.991 14.951 0 6.958 3.39 12.656 8.978 11.666zm11.6-25.245v20.546a1.65 1.65 0 0 1-1.58 1.963l-.621.11v.954q4.488-.79 8.975-1.575v-.955l-.564.1c-.847.147-1.468-.249-1.468-1.428v-16.565c.169-2 .9-4.594 3.218-5a1.779 1.779 0 0 1 2.2 1.863 3.179 3.179 0 0 1-.9 2.347 4.129 4.129 0 0 0 1.131-.028 4.218 4.218 0 0 0 3.443-4.02c0-2.752-2.258-3.2-4.008-2.9a6.8 6.8 0 0 0-5.08 4.255v-3.035l-7.113 1.251v.9l.734-.129c.788-.142 1.634-.235 1.634 1.337h.005zm26.455 15.313c0 3.581-2.628 5.719-5.713 6.239-3.143.529-6-1.253-6-4.606 0-2.444 1.2-4.7 3.6-5.105 1.486-.253 2.514.541 2.514 1.791a1.985 1.985 0 0 1-1.6 2.089 3.448 3.448 0 0 0 2.057.335 3.169 3.169 0 0 0 2.571-3.1c0-3.3-3.028-3.587-4.8-3.286a7.223 7.223 0 0 0-5.714 7.285c0 4.263 3.714 6.236 7.6 5.583a10.652 10.652 0 0 0 8.971-10.465c0-4.036-2.743-5.979-6.228-8.24-3.428-2.156-5.028-3.473-5.028-5.8a4.074 4.074 0 0 1 3.314-3.969c3.2-.536 4.057 3.076 4.228 5.434l1.2-.2v-6.266a15.906 15.906 0 0 0-5.086-.008c-3.77.632-7.084 3.816-7.084 7.794-.005 7.04 11.193 6.745 11.193 14.486zm6.436-33.234v32.848a1.623 1.623 0 0 1-1.581 1.939l-.451.073v.954q4.29-.693 8.58-1.355v-.955l-.339.052c-.959.149-1.467-.277-1.467-1.456v-8.928l.959-1.5c.452.884 3.951 7.755 6.943 12.256 3.387 5.061 6.548 7.634 11.685 6.944a11.388 11.388 0 0 0 8.975-6.253l-.508.061a7.565 7.565 0 0 1-5.25 3.017c-5.531.719-8.806-3.3-11.345-6.927-2.992-4.175-6.153-10.045-7.9-13.091q2.059-3.206 4.12-6.4a6.491 6.491 0 0 1 4.516-3.184v-.9q-4.176.6-8.354 1.233v.9l1.129-.171a1.065 1.065 0 0 1 1.186 1.618c-.508 1.2-4.291 7.105-6.153 10.093v-24.145q-3.557.555-7.113 1.131v.9l.734-.119c.783-.128 1.629-.207 1.629 1.365zm25.84 17.035c-4.4 3.048-8.692 4.282-8.862 9.865a5.372 5.372 0 0 0 6.435 5.451 6.777 6.777 0 0 0 4.572-2.456v1.517q3.3-.426 6.6-.818v-.955c-1.354.161-1.862-.281-1.862-1.46v-17.07c0-4.492-2.766-6.07-6.6-5.566-4.177.547-8.072 3.068-8.071 6.044a2.069 2.069 0 0 0 2.54 2.059 2.438 2.438 0 0 0 2.2-2.492l-.4-1.743a2.885 2.885 0 0 1 2.766-2.787c2.653-.349 2.822 1.991 2.822 3.843v4.548a6.881 6.881 0 0 1-2.14 2.02zm2.145 11.176a3.119 3.119 0 0 1-2.427 2.169c-2.879.382-3.782-2.354-3.782-4.6a7.735 7.735 0 0 1 1.637-5.388c1.411-1.6 3.387-2.529 4.572-4.084v11.9zm-56.355 82.8c-1.86.325-3.362-.193-3.934-2.8q-4.935-21.509-9.87-43.012a22.75 22.75 0 0 1-5.866 4.164s.286 1.373.716 3.361l-7.367 39c-.573 2.377-1.359 4.151-4.507 4.7v1.209q5.079-.876 10.157-1.771v-1.209c-3.219.423-3.5-1.022-3.362-2.185l2.075-11.889q4.362-.766 8.726-1.537c1.43 6.364 2.431 11.239 2.431 11.167.287 2.085-.357 2.767-2.789 3.2v1.209q6.795-1.2 13.59-2.394v-1.212zm-21.6-12.346l3.72-21q2.145 9.8 4.291 19.592-4.011.7-8.017 1.409h.006zm54.892-39.972c5.431-.841 6.886 5.322 7.177 9.328l2.037-.3v-10.612a26.514 26.514 0 0 0-8.636-.146c-6.4.992-12.027 6.367-12.027 13.119 0 11.92 19.01 11.627 19.01 24.8 0 6.078-4.462 9.629-9.7 10.456-5.334.84-10.184-2.211-10.184-7.9 0-4.148 2.037-7.963 6.11-8.62 2.522-.406 4.268.961 4.268 3.083a3.33 3.33 0 0 1-2.716 3.518 5.9 5.9 0 0 0 3.492.605 5.3 5.3 0 0 0 4.364-5.21c0-5.6-5.14-6.157-8.147-5.672-5.722.917-9.7 6.317-9.7 12.3 0 7.237 6.3 10.614 12.9 9.579a17.756 17.756 0 0 0 15.23-17.528c0-6.85-4.655-10.252-10.571-14.171-5.82-3.738-8.536-5.99-8.536-9.949a6.825 6.825 0 0 1 5.624-6.679h.006zm54.7-7.773l.828-.06c2.07-.147 2.153 2.486 2.153 3.968v15.153q-5.382-9.849-10.763-19.579-3.808.339-7.617.732v1.153l.58-.059c2.152-.218 2.483 2.141 2.484 4.281v22.236c0 1.4-.332 4.394-2.9 4.656v.988a31.059 31.059 0 0 1 7.617-2.048v-.988l-.5.044c-1.987.18-2.4-1.261-2.4-2.661v-19.844q6.872 11.994 13.743 24.171l1.573-.1v-28.249c0-1.481.166-4.131 2.236-4.254l.745-.043v-1.164q-3.893.222-7.783.509v1.153zm-5.215 33.19c-4.885.408-9.521 3.77-9.521 8.546 0 3.377 2.649 5.081 5.63 4.808a4.18 4.18 0 0 0 3.725-2.634c-2.566-.193-3.394-1.677-3.394-3.408 0-2.14 1.9-4.461 5.132-4.724 5.051-.4 7.038 3.767 7.038 7.221 0 6.014-4.636 10.1-10.6 10.622-7.038.62-13.247-1.329-18.3-2.208-1.076-.2-2.567-.677-2.732-2.55v-25.119l2.152-.263a4.742 4.742 0 0 1 5.548 5.039v2.635l1.655-.183v-17.212l-1.655.182v1.812a5.959 5.959 0 0 1-5.548 5.916l-2.152.262v-27.918c-.994.04-2.07.258-3.229.242 2.484-1.225 4.967-2.52 7.865-2.859 4.388-.51 6.872.8 6.872 4.672a6.2 6.2 0 0 1-1.573 3.957c5.05-1.613 7.534-4.632 7.533-7.683 0-3.454-2.732-5.438-8.2-4.846-7.616.846-11.756 4.831-18.958 5.8-2.153.294-4.471-.281-4.8-2.457a3.155 3.155 0 0 0-.911 2.436c0 3.128 3.477 3.538 5.215 3.3.829-.114 1.656-.309 2.484-.5v51.143c0 1.813-.165 4.384-3.063 4.783l-1.076.15v1.4q2.731-.381 5.464-.744c11.177-1.474 19.125 6.573 27.4 5.834 8.693-.752 12.584-8.925 12.584-15.28.007-7.744-5.373-10.623-10.588-10.176zm-161.607 40.975a3.116 3.116 0 0 1 1.092.042c7.744 1.759 11.965 6.472 20.377 5.182a14.961 14.961 0 0 0 12.4-10.284q5.9-.974 11.807-1.991v-13.6l-1.439.246c-1.2 11.184-4.878 12.687-8.477 13.285l-1.494.247a11.192 11.192 0 0 0 .112-1.56 7.282 7.282 0 0 0-3.9-6.923v-37.831c0-1.592 0-3.9 2.879-4.369l.72-.119v-1.273q-7.477 1.236-14.951 2.382v1.273l.48-.073c3.439-.529 3.439 1.774 3.439 3.366v35.693c-8.56 1.464-15.75 8.933-22.48 14.43l-2.77.2a.566.566 0 0 1-.266-.042c-1.557-.692-1.674-2.734-1.674-4.3v-23.66a14.964 14.964 0 0 0 2.915-.087c9.589-1.224 18.238-9.661 18.238-20.412 0-10.011-7.051-14.44-15.888-13.279q-11.187 1.469-22.375 2.556c-6.111.671-21.435 4.275-21.435 18.7 0 8.973 6.769 15.3 15.7 14.544 5.359-.447 10.906-4.68 10.906-11.04 0-5.425-3.479-7.767-7.427-7.408-4.565.416-7.812 3.871-6.9 7.82a3.048 3.048 0 0 0 3.045 2.425 2.656 2.656 0 0 0 2.534-2.084 2.242 2.242 0 0 1-1.88-2.175 3.7 3.7 0 0 1 3.573-3.4c3.384-.312 5.17 2.117 5.17 5.392 0 5.24-4.888 8.631-8.743 8.953-8.273.7-12.5-6.119-12.5-13.216 0-12.5 11-16.219 17.58-16.887q2.491-.236 4.983-.494c3.478-.084 3.76 2.4 3.76 4.18v50.594c0 2.055-.094 4.974-3.76 5.359l-.846.087v1.59q7.726-.791 15.455-1.777c-10.316 8.412-22.571 17.83-34.6 18.6-16 1.028-26.25-8.053-26.25-20.671 0-12.708 10.606-20.469 23.2-21.225a32.528 32.528 0 0 1 12.19 1.581l.059-.355a31.4 31.4 0 0 0-12.188-1.58c-12.891.776-23.671 8.87-23.671 21.456 0 13.321 10.723 23.219 26.719 22.182 12.34-.822 22.752-8.892 35.365-20.1zm33.207-8.855a8.28 8.28 0 0 1-.311 2.206l-.49.08c-.639.105-1.919.155-1.919-1.913v-6.27c1.631 1.124 2.718 3.009 2.718 5.9zm-10.158-7.047v7.015c0 1.749-.16 4.243-2.959 4.675l-1.04.159v1.352q6.554-1 13.106-2.077c-1.632 3.153-5.191 6.055-10.845 6.932-8.5 1.3-12.362-3.972-20.1-4.031 6.146-5.137 13.278-12.561 21.836-14.025zm-27.19-44.922q1.41-.174 2.821-.354c3.666-.462 9.5.131 9.5 12.565 0 7.1-1.975 15.547-9.871 16.567a10.981 10.981 0 0 1-2.445.12v-28.9zm164.717 72.6c-2.88.247-5.976 1.977-8.952 5-.912.916-1.9 2-3.034 3.264-1.7 1.886-3.632 4.029-6.089 6.49-8.324-1.082-32.262-9.279-51.272-6.048-11.566 1.915-15.03 6.076-16.119 7.8-.645-.552-5.064-3.963-13.888-2.406-.658.116-1.334.259-2.009.424-9.374 2.435-15.107 7.987-20.651 13.336a74.635 74.635 0 0 1-9.187 7.93 23.953 23.953 0 0 1-9.774 4.257c-3.478.533-6.523-.256-8.353-2.147a8.07 8.07 0 0 1-1.583-9.213 8.779 8.779 0 0 1 6.388-5.381 6.465 6.465 0 0 1 1.894 0 4.379 4.379 0 0 1 3.832 4.677 4.157 4.157 0 0 1-2.747 3.854 1.869 1.869 0 0 1-.423.115 2.567 2.567 0 0 1-2.329-.57 3.287 3.287 0 0 1-.388-2.824.17.17 0 0 1 .011-.043l-.551-.113a.239.239 0 0 1-.013.051 3.678 3.678 0 0 0 .489 3.4 2.884 2.884 0 0 0 2.71.8 5.7 5.7 0 0 0 1.094-.287.18.18 0 0 0 .068-.029 5.419 5.419 0 0 0 3.121-5.056 5.039 5.039 0 0 0-4.64-4.854 6.957 6.957 0 0 0-1.91.026 9.926 9.926 0 0 0-7.945 8.83 8.479 8.479 0 0 0 3.374 7.738 42.207 42.207 0 0 1-8.238-5.021c-5.093-3.645-10.36-7.457-16.48-6.783a14.358 14.358 0 0 0-4.407 1.25c-4.019 1.961-5.477 5.43-5.139 8.03a3.548 3.548 0 0 0 3.387 3.415 4.434 4.434 0 0 0 .516-.021 4.124 4.124 0 0 0 2.864-1.564 4.372 4.372 0 0 0 .818-3.47.084.084 0 0 0-.008-.044l-.6.15v.045a3.21 3.21 0 0 1-.639 2.511 3.7 3.7 0 0 1-2.423 1.249 3.013 3.013 0 0 1-.409.014 2.6 2.6 0 0 1-2.388-2.558c-.271-2.147.978-5.067 4.381-6.8a14.85 14.85 0 0 1 4.652-1.368c5.547-.617 10 2.609 14.721 5.991 5.116 3.661 10.407 7.408 17.544 6.316 4.9-.751 10.108-3.7 15.929-9.013.817-.744 1.644-1.521 2.52-2.344 5.645-5.307 12.67-11.944 21.533-13.5a24.522 24.522 0 0 1 10.2-.061 16.986 16.986 0 0 1 4.529 2.126 7.065 7.065 0 0 0-.018 5.581 4.363 4.363 0 0 0 4.81 2.059 6.412 6.412 0 0 0 3.97-2.409 4.084 4.084 0 0 0 .585-4.3l-.42.214a4.379 4.379 0 0 1-1.046 3.272 5.4 5.4 0 0 1-3.241 1.949 3.273 3.273 0 0 1-3.569-1.459 4.857 4.857 0 0 1-.036-4.535c1.568-3.521 5.525-5.346 7.744-6.116a49.782 49.782 0 0 1 7.381-1.9c15.652-3.007 43.438 4.446 51.023 5.561-1.255 1.234-2.651 2.586-4.63 4.3-7.287-2.266-12.944-3-17.294-2.359l-.326.051a19.345 19.345 0 0 0-7.682 2.914 11.506 11.506 0 0 0-4.1 4.534 5.3 5.3 0 0 0 .391 5.776c1.5 1.835 3.871 2.51 7.055 2.023 7.542-1.167 17.392-8.244 22.042-12.209l.367.111c4.156 1.241 11.113 3.431 13.725 10.186a13.42 13.42 0 0 1-.922 11.331 12.167 12.167 0 0 1-7.5 6.017 11.621 11.621 0 0 1-1.289.23c-5 .6-7.758-2.55-8.279-5.975a7.854 7.854 0 0 1 4.735-8.482 5.132 5.132 0 0 1 1.339-.361 3.429 3.429 0 0 1 3.538 1.634 2.965 2.965 0 0 1-.316 3.161 4.526 4.526 0 0 1-1.823 1.468l.342.664a4.8 4.8 0 0 0 3.211-3.019 3.7 3.7 0 0 0-.912-3.755 4.452 4.452 0 0 0-3.85-1.3 7.843 7.843 0 0 0-4.13 2.051 8.8 8.8 0 0 0-2.669 9.517c.976 2.867 3.775 5.688 8.707 5.1a11.968 11.968 0 0 0 9.38-6.687 13.958 13.958 0 0 0 .879-11.812c-2.53-6.245-8.037-8.631-13.949-10.591 1.5-1.3 2.935-2.631 4.793-4.414 4.819.585 9.846 1.123 13.982.738 4.392-.411 7.421-1.814 9.533-4.481a7.712 7.712 0 0 0 1.219-8.24 6.661 6.661 0 0 0-6.743-3.618zm-34 27.385c-4.322 2.561-8.211 4.175-11.246 4.637-3 .458-5.212-.175-6.586-1.9a4.544 4.544 0 0 1-.237-4.952c1.289-2.681 4.9-5.914 11.181-6.847a24.26 24.26 0 0 1 4.689-.217 61.822 61.822 0 0 1 12.128 2.211 74.993 74.993 0 0 1-9.927 7.068zm35.911-14.206c-1.453 1.082-3.728 1.763-6.759 2.052a62.093 62.093 0 0 1-12.366-.376c2.629-2.55 4.427-4.4 5.875-5.884 1.2-1.23 2.146-2.2 3.149-3.129 2.732-2.58 5.476-4.053 7.933-4.266a5.264 5.264 0 0 1 5.841 3.8c.767 2.792-.673 5.839-3.671 7.8zm-164.836-11.687a6.087 6.087 0 0 1 3.813.961 5.4 5.4 0 0 1 2.2 4.44 5.822 5.822 0 0 1-2.2 4.6 6.055 6.055 0 0 1-3.813 1.139q-1.74.027-3.481.027v-11.132q1.74-.002 3.481-.035zm3.069 3.083a3.333 3.333 0 0 0-2.832-1.178q-.791.014-1.582.021v7.318l1.582-.02a3.428 3.428 0 0 0 2.832-1.3 4 4 0 0 0 .807-2.442 3.8 3.8 0 0 0-.807-2.392zm6.108 6.752a4.452 4.452 0 0 1-1.428-3.635v-6.443q1.068-.051 2.136-.109v6.6a2.332 2.332 0 0 0 2.611 2.626 2.835 2.835 0 0 0 1.882-.845 2.8 2.8 0 0 0 .728-2.121v-6.6q1.068-.079 2.136-.166v6.443a5.039 5.039 0 0 1-1.424 3.819 5.27 5.27 0 0 1-3.322 1.38 4.691 4.691 0 0 1-3.323-.947zm14.8-11.314q1.068-.111 2.136-.227v11.135q-1.068.117-2.136.227v-11.131zm4.668-.514l1.5-.178q3.084 3.255 6.17 6.46v-7.254q1.068-.145 2.136-.3v11.136l-1.5.21q-3.086-3.2-6.17-6.45v7.254q-1.068.13-2.136.255v-11.129zm19.461-2.73v1.909q-1.464.235-2.927.462v9.227q-1.068.166-2.136.327v-9.222q-1.464.221-2.927.433v-1.913q3.995-.577 7.99-1.221zm3.8 1.287v2.306q1.7-.284 3.4-.576v1.909q-1.7.293-3.4.576v3.1q2.334-.39 4.667-.8v1.909q-3.4.589-6.8 1.147v-11.121q3.323-.543 6.645-1.12v1.906q-2.259.391-4.514.768zm9.415-3.541l2.2-.4 3.021 7.052q1.52-4.082 3.038-8.165l2.2-.41q-2.238 5.986-4.477 11.967l-1.5.276q-2.245-5.151-4.484-10.318zm11.883-2.186l2.136-.4v11.135l-2.136.4v-11.131zm4.953 7.227a3.049 3.049 0 0 0 2.61.731 1.842 1.842 0 0 0 1.614-1.706c0-1.431-2.057-1.217-3.544-1.81a2.232 2.232 0 0 1-1.566-2.234c0-1.988 1.819-3.478 3.654-3.825a4.538 4.538 0 0 1 3.212.442l-1.107 1.8a2.557 2.557 0 0 0-1.915-.369 1.846 1.846 0 0 0-1.708 1.533c0 1.8 5.11.273 5.11 4.028a4.462 4.462 0 0 1-3.75 4.05 5.04 5.04 0 0 1-4-.913zm8.228-1.556a3.053 3.053 0 0 0 2.61.734 1.836 1.836 0 0 0 1.614-1.7c0-1.432-2.057-1.222-3.544-1.817a2.231 2.231 0 0 1-1.567-2.234c0-1.988 1.82-3.478 3.655-3.822a4.536 4.536 0 0 1 3.212.451l-1.108 1.8a2.555 2.555 0 0 0-1.914-.374 1.843 1.843 0 0 0-1.709 1.53c0 1.8 5.11.283 5.11 4.04a4.448 4.448 0 0 1-3.749 4.04 5.044 5.044 0 0 1-4-.917q.691-.865 1.388-1.729zm14.9-10.908v1.908q-1.463.261-2.927.527v9.226l-2.135.39v-9.227q-1.464.267-2.928.539v-1.909q4-.737 7.991-1.454zm3.8 1.239v2.307q1.7-.3 3.4-.583v1.909q-1.7.286-3.4.583v3.1q2.333-.406 4.667-.8v1.909q-3.4.569-6.8 1.17v-11.134q3.321-.587 6.644-1.144v1.909q-2.258.385-4.511.777zm12.964-2.123v2.307q1.7-.26 3.4-.508v1.909q-1.7.248-3.4.507v5.012q-1.068.162-2.136.33v-11.135q3.322-.522 6.645-1v1.909q-2.254.327-4.509.671zm3.719 8.673q2.373-5.912 4.746-11.8l1.5-.2q2.373 5.257 4.747 10.545-1.116.132-2.231.27l-1.045-2.335q-2.221.282-4.445.588l-1.044 2.611-2.228.323zm4.082-4.948q1.408-.19 2.816-.372-.7-1.557-1.408-3.11-.7 1.745-1.408 3.484zm8.18-7.786l1.5-.169q3.085 3.287 6.171 6.632v-7.254q1.068-.1 2.136-.188v11.136l-1.5.13q-3.086-3.351-6.171-6.644v7.254q-1.068.115-2.136.238v-11.135zm12.342-1.181l1.5-.11q3.086 3.411 6.17 6.891v-7.255q1.068-.051 2.137-.093v11.136l-1.5.063q-3.085-3.489-6.171-6.9v7.254q-1.068.073-2.136.154v-11.14zm12.627 7.5a3.583 3.583 0 0 0 2.61 1.167 1.484 1.484 0 0 0 1.609-1.347v-.074c0-1.433-2.057-1.586-3.544-2.421a2.717 2.717 0 0 1-1.566-2.486 3.449 3.449 0 0 1 3.654-3.22 4.992 4.992 0 0 1 3.212 1.022l-1.107 1.6a2.9 2.9 0 0 0-1.915-.711 1.5 1.5 0 0 0-1.708 1.241c0 1.78 5.11 1.166 5.11 4.938a3.573 3.573 0 0 1-3.75 3.371 5.844 5.844 0 0 1-4-1.571q.693-.754 1.39-1.505z" transform="translate(.001)"/></svg>