<svg id="01d19fc1-a8b3-4da0-909c-95024590007e" data-name="Layer 1" xmlns="http://www.w3.org/2000/svg" xmlns:xlink="http://www.w3.org/1999/xlink" width="31.24" height="31.24" viewBox="0 0 31.24 31.24"><defs><style>.\37 c3ff75c-734f-4f1c-b5ea-d2ad7c236b59{fill:none;}.\32 72a1680-56a0-4611-8491-9e57c8f8cd3c{clip-path:url(#6b03ade2-1c4a-46fd-a2a0-b16b3856e5f9);}.\33 d4bfbe3-e0e1-472e-b2c5-dfc900c78705{fill:#fff;}.\32 31948e9-5b15-43f3-813e-bc52f78e23f0{fill:#74b526;}</style><clipPath id="6b03ade2-1c4a-46fd-a2a0-b16b3856e5f9" transform="translate(-1.38 -1.38)"><rect class="7c3ff75c-734f-4f1c-b5ea-d2ad7c236b59" x="0" y="0" width="32.62" height="32.62"/></clipPath></defs><title>hjarta</title><g class="272a1680-56a0-4611-8491-9e57c8f8cd3c"><path class="3d4bfbe3-e0e1-472e-b2c5-dfc900c78705" d="M17,32.62A15.62,15.62,0,1,0,1.38,17,15.62,15.62,0,0,0,17,32.62" transform="translate(-1.38 -1.38)"/><path class="231948e9-5b15-43f3-813e-bc52f78e23f0" d="M17,11.06a5.57,5.57,0,0,1,5.31-2,5.9,5.9,0,0,1,4.74,4.59c.29,1.51.72,4.24-3.09,7.47-2.73,2.32-5.13,4.45-6.27,5.47a1,1,0,0,1-1.39,0c-1.14-1-3.53-3.15-6.27-5.47-3.81-3.23-3.37-6-3.09-7.47A5.9,5.9,0,0,1,11.69,9a5.57,5.57,0,0,1,5.31,2" transform="translate(-1.38 -1.38)"/></g></svg>