<svg xmlns="http://www.w3.org/2000/svg" width="162" height="50" viewBox="0 0 109.003 34"><defs><style>.\38 7938eb1-cfaa-408e-b7bb-83c92f2e19be{fill:#FF5C6F;}</style></defs><title>logo</title><path class="87938eb1-cfaa-408e-b7bb-83c92f2e19be" d="M25.263 26.5c-1.165 0-.513-1.993-.1-3.28l2.178-6.732c.229-.7 1.558-3.787-2.742-3.792h-4.736l-.341 1.166h.947c2.857 0 2.634 1.03 2.1 2.906l-1.827 6.349c-.5 1.736-1.089 5.16 2.538 5.466a5.134 5.134 0 0 0 4-1.581 13.634 13.634 0 0 0 1.881-2.761 5.157 5.157 0 0 0 5.4 4.527c3.341.016 6.881-2.593 6.881-6.376 0-4.436-4.375-6.616-3.443-9.7h-4.419s-4.221 8.292-5.225 10.273c-.582 1.135-1.749 3.535-3.092 3.535zm8.114-10.55c.4 3.795 3.6 4.746 3.6 7.313a3.124 3.124 0 0 1-3.533 3.406c-1.935-.117-3.176-1.8-3.375-4.21-.006 0 2.663-5.227 3.3-6.509zm34.2-3.577a5.2 5.2 0 0 0-5.08 3.9l-.613 2.021h1.3l.338-1c.568-1.663 1.36-2.535 2.5-2.535 1.024 0 1.361.8.771 2.853l-1.218 4.243c-.4 1.4-1.2 4.583-4.175 4.543-2.1-.028-2.482-1.973-1.76-4.563l5.009-17.992h-4.274c-1.219 4.118-4.582 15.953-5 17.313a7.533 7.533 0 0 0-.333 2.385 5.6 5.6 0 0 1-4.976 2.865c-2.141 0-4.533-1.486-3.6-4.734.5-1.721 1.158-4.039 1.158-4.039a3.434 3.434 0 0 1 2.529-2.7c2.239-.38 1.616 1.909 1.08 2.97-.226.448-.969 1.781-1.257 2.224a2.467 2.467 0 0 1-2.031 1.219l-.279.969s3.068.257 4.719-1.406a13.268 13.268 0 0 0 2.625-3.679 3.172 3.172 0 0 0-.68-3.662 5.152 5.152 0 0 0-3.571-1.268c-3.7 0-6.419 1.9-7.411 5.375l-1.075 3.734c-1.091 3.794 1.5 7.269 5.864 7.269a10.387 10.387 0 0 0 7.341-3.063c.77 1.822 2.565 3.12 5.485 3.12 3.748 0 7.3-1.643 8.774-6.752.952-3.306 1.088-3.781 1.268-4.41 1.083-3.763-.753-5.19-3.427-5.2zm39.086.327l-.385 1.358a3.157 3.157 0 0 0-3.1-1.616 7.006 7.006 0 0 0-5.456 2.185l.419-1.451a2.2 2.2 0 0 0-.58-.338 6.1 6.1 0 0 0-6.362 1.9l.585-2.038h-4.166l-2.327 8.079c-.963 3.34-2.817 5.627-6.179 5.627-2.141 0-4.533-1.486-3.6-4.734.5-1.721 1.158-4.039 1.158-4.039a3.433 3.433 0 0 1 2.529-2.7c2.238-.38 1.615 1.909 1.079 2.97-.226.448-.968 1.781-1.256 2.224a2.469 2.469 0 0 1-2.031 1.219l-.279.969s3.067.257 4.718-1.406a13.226 13.226 0 0 0 2.625-3.679 3.17 3.17 0 0 0-.68-3.662 5.151 5.151 0 0 0-3.575-1.268c-3.7 0-6.419 1.9-7.411 5.375l-1.075 3.734c-1.09 3.794 1.5 7.269 5.864 7.269a9.953 9.953 0 0 0 6.511-2.355l-.575 2h4.193l2.646-9.185c.422-1.366 1.51-4.128 4.589-4.148a2.412 2.412 0 0 1 2.162 1.049 11.247 11.247 0 0 0-.994 2.431l-1.073 3.734c-.829 2.886.3 6.5 3.934 6.5a5.014 5.014 0 0 0 4.378-2.35l-.787 2.579c-.833 2.825-2.081 3.681-4.034 3.725a3.6 3.6 0 0 1-3.866-2.69h-2.923c0 .849 1.253 5 7.008 5 3.679 0 7.008-1.944 8.585-8.141l4.031-14.127h-4.3zm-1.48 5.583s-.5 2.074-1.285 4.446c-.532 1.6-1.883 3.454-3.71 3.5-2.118.048-1.754-2.852-1.369-4.171.007-.021.937-3.532.937-3.532.734-2.674 2.488-3.674 4.221-3.539.953.069 1.952.758 1.207 3.3zm-74.45 15.396c-5.449 0-7.9-3.9-12.251-5.867a13.714 13.714 0 0 0-6.014-1.122 22.9 22.9 0 0 0 2.471-5.458l2.524-8.782c1.067-3.708 2.052-7.99 6.455-7.99 1.327 0 1.849.544 1.938.778a2.942 2.942 0 0 0-1.833 2.6 2.833 2.833 0 0 0 2.832 2.834 3.022 3.022 0 0 0 2.907-3.133l-.007-.124c0-3.019-3.161-4.83-6.079-4.83-3.311 0-9.523.781-12.692 12.437-.6 2.217-1.657 5.889-2.374 7.837a7.549 7.549 0 0 1-6.65 5.382 5.7 5.7 0 0 0 3.521 2.8c1.53.478 4 .123 5.564.029 6.055-.36 7.945 2.748 11.941 4.23 8.847 3.6 16.014-1.166 19.462-4.4h-3.221a13.1 13.1 0 0 1-8.493 2.775z" transform="translate(-1.96 -2.585)"/></svg>