<svg id="Layer_2" xmlns="http://www.w3.org/2000/svg" viewBox="0 0 196.4 122.9"><style>.st0{fill:#005FAF;} .st1{fill:#FFE100;}</style><path class="st0" d="M40.9 40.9h114.5V82H40.9z"/><ellipse class="st1" cx="98.2" cy="61.3" rx="56.3" ry="18.8"/><path class="st0" d="M56.6 68.5c.6-.3.5-1.3.5-1.4V54.3c0-.7-.4-1-.4-1h10.4s-.4.3-.4 1v13.1c0 .2.1.9.5 1.1H56.6zM81.8 68.5c-.5-.4-.5-1.1-.5-1.3v-4.9s2.9 4.6 3.2 5.3c.3.7 0 .9 0 .9h12s-.1-.1-.3-.2c-.3-.2-.7-.5-1.1-1-.4-.6-4.8-7.7-4.8-7.7s3.3-4.6 3.8-5.3c.5-.6.9-.9.9-.9H84.7s.6.4.1 1.1l-3.5 4.9v-5.1c0-.7.5-1 .5-1H71.6s.4.3.4 1v12.8c0 .1 0 1.1-.5 1.4h10.3zM98.6 53.4s.4.3.4 1v12.8c0 .1 0 1.1-.5 1.4H116v-5.1s-.4.5-1.2.5H108v-1.2h4.9c.3 0 1.1.1 1.3.4v-4.6c-.2.3-1.1.4-1.3.4H108v-1.2h6.4c.9 0 1.6.7 1.6.7v-4.9H98.6zM132.2 68.5s.5-.5.3-1.1c-.2-.7-.7-1.9-.7-1.9h-4.5s-.6 1.2-.7 1.9c-.2.6.3 1.1.3 1.1h-9.1s.5-.4.8-1.2c.3-.7 4.7-12.3 4.8-12.7.3-.8-.2-1.3-.2-1.3h14.5s-.5.5-.2 1.3 4.9 12.3 5.1 12.7c.4.8 1 1.2 1 1.2h-11.4zm-1.4-5.7s-1.1-2.7-1.1-2.8c-.1-.3-.2-.8-.2-.8s0 .5-.2.8c0 .1-1.1 2.8-1.1 2.8h2.6zM157.1 43.5c0-2.1 1.7-3.6 3.7-3.6s3.7 1.5 3.7 3.6-1.7 3.7-3.7 3.7c-2-.1-3.7-1.6-3.7-3.7zm3.7 3c1.6 0 3-1.3 3-3s-1.3-3-3-3-3 1.3-3 3 1.3 3 3 3zm-.8-.9h-.6v-4.2h1.6c1 0 1.5.4 1.5 1.2 0 .8-.5 1.1-1.1 1.2l1.2 1.9h-.7l-1.1-1.8h-.8v1.7zm.8-2.4c.5 0 1 0 1-.7 0-.5-.5-.6-.9-.6h-.9v1.3h.8z"/></svg>